<svg xmlns="http://www.w3.org/2000/svg" viewBox="0 0 1024 960">
    <g transform="scale(1,-1) translate(0, -960)">
        <path d="M290.219 452.907l-1.323-1.664c-2.688 0.341-5.419 0.597-8.107 0.853l32.597 27.307c-4.864-7.083-23.168-26.496-23.168-26.496zM364.501 516.907c16.555 9.728 29.696 17.152 29.696 17.152s2.432 0.427 5.419 0.427c2.987 0 6.571-0.427 8.832-2.133 4.565-3.413 6.869-26.283 9.131-48 2.261-21.675-8.021-59.989-8.021-59.989l5.717-2.261c5.717-2.304 5.717-24.576 0-27.989-4.693-2.816-4.352-8.704-3.157-13.909 2.219-2.304 5.12-4.608 7.552-6.955 0.768 0.512 1.451 0.981 1.877 1.451 3.413 3.456 2.859 7.979 6.869 20.011 2.005 6.016 8.917 11.179 16.469 15.36-1.963 16.555-2.944 58.923-3.883 61.781-1.152 3.456-4.565 8.021-4.565 16.555 0 8.576 5.12 16.597 10.837 19.413 5.717 2.859 9.131-2.304 10.88-9.131 1.408-5.547 4.267-59.52 5.333-80.085 0.555 0.213 1.067 0.469 1.536 0.64 7.595 3.328 14.421 0.341 17.792-3.072 2.261 1.664 4.011 4.736 5.077 9.387 1.707 7.424 43.989 37.12 51.413 43.435 2.176 1.835 6.144 3.029 11.093 3.115 5.931 6.784 14.677 16.171 20.907 20.309 10.283 6.869 20.565 6.869 20.565 6.869s2.859-3.413 12.587-14.848c3.456-4.011 7.040-9.728 10.24-15.403 3.925 9.728 11.093 19.669 26.368 21.12 16.256 1.579 55.424-10.837 65.109-18.859s25.131-24.576 34.304-32.555c0 0 18.304-17.707 21.12-19.413 0.213-0.128 0.427-0.299 0.64-0.427 1.707 2.176 6.229 2.176 6.229 2.176 1.621 1.365 6.869 4.523 12.885 8.021l-138.24 323.84h-3.669l-304.384-255.189c9.941 6.955 21.291 14.379 29.44 19.157zM162.859 216.704h439.083c-2.176 2.731-4.651 6.016-6.571 8.235-8.576 9.728-32.597 50.304-37.163 59.989-4.565 9.728-14.848 21.12-20.011 16.555s-26.837-14.848-34.859-12.544c-8.021 2.304-7.424 13.141-7.424 13.141s-4.011 6.272-9.728 6.272c-5.717 0-15.445 9.131-17.152 23.424-0.597 5.12-0.597 8.96-0.128 11.989-6.784-2.176-13.611-1.707-13.611-1.707s-0.299-0.256-0.768-0.725c2.901-2.304 4.779-5.632 4.779-9.557 0-9.131-3.413-16-11.435-21.163-7.979-5.163-10.283 3.456-16-1.707-5.717-5.12-17.792-10.325-20.565-3.413-1.152 2.859-6.272 1.152-11.989 1.707s-5.163 5.717-5.163 5.717-11.435 10.283-20.011 22.869c-8.576 12.587-18.261 33.707-18.261 43.435 0 9.685-9.131 6.869-14.848 5.717-1.835-0.384-6.912-3.968-13.312-9.003-3.328-8.789-9.472-19.413-16.384-29.312-11.989-17.152-36.565-36.565-51.968-42.837-2.347-0.981-4.907-1.493-7.68-1.707-2.517-2.859-5.632-5.035-9.131-6.699-5.205-9.6-52.949-57.344-55.765-61.269-1.621-2.347-13.184-10.069-23.936-17.408zM183.381 242.645c6.528 6.528 23.68 29.141 37.717 47.403-5.632-0.597-10.752-0.725-14.251-1.109-16-1.707-26.283 4.565-26.283 4.565-13.227 28.373-13.867 50.347-10.24 65.963l-170.325-142.763h154.496c13.44 11.648 25.131 22.187 28.885 25.941zM771.328 408.917c-1.109-0.939-2.56-0.811-3.968-0.128 0.085-3.285 0.555-7.296 0.555-7.296 4.565-6.315 9.685-31.445 8.576-42.837-0.981-9.771-3.627-17.024-4.352-18.901 0.512-2.048 1.024-3.925 1.536-5.675 2.859-9.728 2.261-11.435 4.011-11.435s6.272-4.565 9.728-6.272c3.413-1.749 31.445-15.445 42.283-24.021s17.707-23.979 22.272-43.435c4.565-19.413-0.555-20.011-5.12-19.413s-13.696 16-14.848 30.293c-1.152 14.293-13.141 29.696-21.717 37.717s-32 11.435-35.413 13.141c-3.413 1.707-2.304 4.011-2.304 4.011s-3.413 2.859-5.717 6.869c-0.469 0.811-1.152 2.389-1.92 4.395-1.152-1.877-4.011-4.395-11.264-4.395-11.435 0-38.869 8.576-54.869 13.696-11.008 3.541-28.971 10.581-40.661 15.573 8.875-21.76 31.872-62.507 32.896-64.725 1.195-2.603 11.008-5.888 17.451-8.491 6.443-2.56 7.979-25.131 14.080-29.355 6.101-4.267 33.536-4.395 45.269-6.912 11.733-2.56 11.52-8.917 6.869-11.435-4.608-2.475-45.013 8.021-55.211 9.643-10.155 1.621-14.464 11.349-18.603 19.243s-5.419 12.885-12.459 12.629c-7.083-0.213-6.912 8.491-14.592 5.504s-5.717 5.931-17.493 27.179c-11.733 21.248-18.645 46.165-21.973 46.891-3.371 0.725-13.141-1.237-18.432-4.181s-35.157-19.243-41.899-25.984c-6.741-6.699-38.784 7.253-46.336 10.069s-12.672 14.464-12.459 20.821c0.043 1.109 0.725 2.816 1.877 4.864-2.219 0.043-3.968 0.171-5.163 0.341-8.021 1.152-7.424-1.707-9.685-8.021-1.109-3.029-3.413-4.608-6.059-4.949 2.432-5.077 4.096-10.453 4.907-13.909 2.304-9.685-2.304-16.555 1.707-19.413s7.424-5.163 15.403 1.707c7.979 6.869 22.272 10.283 33.707 7.424s37.717-54.827 45.696-72.576c5.419-12.032 10.496-23.851 13.312-30.507h260.992l-87.381 204.672c-6.485-5.291-11.093-10.624-13.227-12.416zM395.264 525.739c-1.323 0-2.901-0.512-4.48-1.408-5.12-2.859-42.283-40.021-51.968-46.848-9.728-6.869-23.424-7.979-23.424-7.979l-18.176-19.541c11.52-2.005 21.419-4.651 25.6-6.741 4.565-2.304 6.869-6.613 8.021-10.709 3.157 0.512 11.904 2.091 16.512 4.395 5.717 2.859 21.717 9.131 30.293 3.413s1.707-28.587 4.011-29.141c0.768-0.213 2.432-0.427 4.523-0.811-0.811 5.589 6.315 10.539 6.315 10.539s-1.152 26.837-0.555 39.979c0.555 13.141 6.272 48 7.424 56.576 0.768 5.888-1.152 8.277-4.096 8.277v0zM588.971 487.723c-2.432 0-5.461-1.963-8.491-6.229-3.712-5.205-5.973-10.88-8.021-15.445 5.547-3.2 10.965-7.808 15.701-14.208 2.475 1.237 6.485 2.133 11.904 3.2-2.304 10.496-5.376 24.405-6.443 28.16-0.811 2.944-2.475 4.48-4.651 4.523v0zM594.389 413.056c-4.949-10.667-14.635-20.608-23.083-33.28-0.768-1.152-1.621-2.261-2.475-3.328-0.683-5.035-4.395-10.752-9.344-14.507-12.587-9.515-27.136-14.549-21.717-16.341 5.461-1.749 12.629 4.267 21.205 8.832s55.083 13.952 55.083 13.952c2.901 0.811 6.613 1.664 10.624 2.261-6.784 5.077-13.056 10.624-15.701 15.403-3.755 6.869-8.747 15.317-9.216 26.069-1.707 0.128-3.584 0.469-5.376 0.939v0zM684.587 402.432c-7.381 0.043-17.621-8.661-6.059-24.363 12.16-16.427 17.152-14.976 21.419-10.709 4.267 4.309 2.859 15.701-2.859 24.277s-5.717 9.984-11.435 10.709c-0.341 0.085-0.683 0.085-1.067 0.085v0zM328.661 401.835c-0.256-4.267-0.085-8.149 0.981-10.667 0.64-1.493 0.811-3.371 0.64-5.547 4.224 3.157 8.064 6.272 12.117 8.235-5.163 2.688-10.923 6.229-13.739 7.979v0zM383.36 366.635c5.717-21.163 19.413-43.989 19.413-43.989s4.011-2.304 7.424 2.261c2.091 2.773 8.789 7.424 15.872 11.563-1.707 1.493-2.731 2.731-2.731 2.731s-7.424-4.011-16-1.152c-7.040 2.347-6.357 5.888-3.968 13.44-3.285 4.608-6.485 14.165-10.325 18.005-3.243 3.243-7.424 3.285-11.947 4.224 0.811-2.133 1.536-4.48 2.261-7.083zM280.789 452.096c-11.989 1.109-23.723 1.067-31.147-1.493-18.304-6.272-57.685-29.696-64-43.989-5.163-11.733-10.709-21.931-11.221-34.731-1.664-3.499-3.029-7.765-4.139-12.416l110.507 92.629zM335.019 497.579c-10.24-7.339-19.029-14.336-21.376-17.792-0.043-0.085-0.213-0.256-0.256-0.341l21.632 18.133zM672.555 153.856c-11.435 4.011-26.283 13.696-27.989 16.555s-6.869 5.12-6.869 5.12-15.317 17.963-24.448 35.669c0 0-0.981 2.347-2.304 5.461h-9.003c7.509-9.387 15.872-20.565 24.277-31.189 10.88-13.696 4.651-15.104 8.064-15.104s1.152-2.304 4.011-5.163c2.859-2.859 18.304-11.989 22.272-14.848 4.011-2.859 20.565-8.576 22.827-6.869 2.304 1.707 3.413 7.424 3.413 7.424s-2.816-1.067-14.251 2.944zM1017.6 379.605c0 0-13.141 13.312-24.576 18.475s-10.88 10.283-17.707 10.837c-6.869 0.555-19.413 2.859-29.696 7.424s-39.424 16.555-51.968 23.424c-12.587 6.869-20.565 11.989-24.021 14.848-3.413 2.859-9.131 2.475-20.011 0.768 0 0-30.848-7.040-41.728-12.16-6.485-3.072-17.579-9.088-26.581-14.293l3.243-7.552c3.883 3.2 8.277 6.357 13.611 8.704 14.293 6.315 27.989 11.989 43.989 13.141s18.304 2.261 18.304 2.261 7.424 1.152 16-3.413c8.576-4.565 59.435-30.293 66.859-33.152s18.859-8.021 26.88-14.293c7.979-6.272 14.251-5.717 14.251-5.717s5.717-6.315 14.293-11.989c8.576-5.717 11.435-8.576 16.555-9.728 5.12-1.109 15.445-6.443 2.304 12.416zM154.496 216.704c-21.291-18.432-47.104-39.723-53.419-41.472-10.283-2.859-13.696-1.707-5.163-6.272 8.576-4.565 23.808-1.152 29.312 6.869 5.504 7.979 12.971 21.12 19.243 27.392 2.688 2.688 10.283 7.979 18.304 13.483h-8.277z"/>
    </g>
</svg>