<svg xmlns="http://www.w3.org/2000/svg" viewBox="0 0 1024 960">
    <g transform="scale(1,-1) translate(0, -960)">
        <path d="M596.608 487.339h90.411c0 0 0 0 0 0 4.368 0 7.912 3.529 7.936 7.891v80.514c0 4.383-3.553 7.936-7.936 7.936v0h-90.411c-4.359 0-7.893-3.534-7.893-7.893v0-80.555c0-4.352 3.541-7.893 7.893-7.893zM470.571 719.019h90.368c4.383 0 7.936 3.553 7.936 7.936v0 80.555c-0.024 4.365-3.568 7.893-7.936 7.893 0 0 0 0 0 0h-90.368c-4.359 0-7.893-3.534-7.893-7.893v0-80.555c0-4.352 3.499-7.893 7.893-7.893zM470.571 603.179h90.368c4.373 0.024 7.912 3.563 7.936 7.934v80.514c-0.024 4.365-3.568 7.893-7.936 7.893 0 0 0 0 0 0h-90.368c-4.359 0-7.893-3.534-7.893-7.893v0-80.512c0-4.352 3.499-7.893 7.893-7.936zM345.557 603.179h90.453c4.346 0.048 7.851 3.583 7.851 7.936 0 0 0 0 0 0v0 80.512c0 4.359-3.534 7.893-7.893 7.893h-90.368c-4.359 0-7.893-3.534-7.893-7.893v0-80.512c0-4.352 3.541-7.893 7.893-7.936zM219.136 603.179h90.411c4.365 0.024 7.893 3.568 7.893 7.936 0 0 0 0 0 0v0 80.512c0 4.359-3.534 7.893-7.893 7.893h-90.411c0 0 0 0 0 0-4.368 0-7.912-3.529-7.936-7.891v-80.514c0-4.352 3.584-7.893 7.936-7.936zM470.571 487.339h90.368c0 0 0 0 0 0 4.368 0 7.912 3.529 7.936 7.891v80.514c0 4.383-3.553 7.936-7.936 7.936v0h-90.368c-4.359 0-7.893-3.534-7.893-7.893v0-80.555c0-4.352 3.499-7.893 7.893-7.893zM345.557 487.339h90.453c4.341 0.024 7.851 3.549 7.851 7.893 0 0 0 0 0 0v0 80.512c0 0.013 0 0.028 0 0.043 0 4.344-3.51 7.869-7.848 7.893h-90.455c-4.341-0.024-7.851-3.549-7.851-7.893 0 0 0 0 0 0v0-80.555c0-4.352 3.541-7.893 7.893-7.893zM219.136 487.339h90.411c4.359 0 7.893 3.534 7.893 7.893v0 80.512c0 0.013 0 0.028 0 0.043 0 4.344-3.51 7.869-7.848 7.893h-90.455c-4.383 0-7.936-3.553-7.936-7.936v0-80.512c0-4.352 3.584-7.893 7.936-7.893zM94.549 487.339h90.453c4.341 0.024 7.851 3.549 7.851 7.893 0 0 0 0 0 0v0 80.512c0 0.013 0 0.028 0 0.043 0 4.344-3.51 7.869-7.848 7.893h-90.455c-4.341-0.024-7.851-3.549-7.851-7.893 0 0 0 0 0 0v0-80.555c0-4.352 3.499-7.893 7.893-7.893zM1013.888 538.027c-2.773 2.176-28.672 21.76-83.371 21.76-14.421-0.043-28.843-1.28-43.093-3.712-10.581 72.533-70.528 107.947-73.216 109.483l-14.677 8.491-9.643-13.952c-12.117-18.688-20.907-39.339-26.112-61.013-9.813-41.387-3.84-80.299 17.195-113.536-25.387-14.165-66.133-17.621-74.411-17.92h-674.517c-17.633-0.024-31.927-14.288-32-31.908v-0.007c-0.028-1.93-0.043-4.208-0.043-6.49 0-59.875 10.841-117.218 30.668-170.172l-1.1 3.35c23.253-60.928 57.813-105.813 102.827-133.291 50.347-30.848 132.267-48.512 225.067-48.512 41.941-0.128 83.755 3.669 125.013 11.349 61.36 11.497 116.067 32.103 165.654 60.61l-2.539-1.346c41.813 24.192 79.36 54.955 111.36 91.136 53.419 60.501 85.248 127.872 108.928 187.733h9.429c58.539 0 94.507 23.424 114.347 43.051 13.184 12.501 23.467 27.733 30.165 44.629l4.181 12.288z"/>
    </g>
</svg>