<svg xmlns="http://www.w3.org/2000/svg" viewBox="0 0 1024 960">
    <g transform="scale(1,-1) translate(0, -960)">
        <path d="M968.533 776.533c-64 64-162.133 64-226.133 4.267-4.267-4.267-4.267-8.533-4.267-12.8s0-8.533 4.267-12.8l21.333-21.333c4.267-4.267 12.8-4.267 21.333 0 17.067 12.8 34.133 17.067 55.467 17.067 51.2 0 93.867-42.667 93.867-93.867 0-25.6-8.533-46.933-25.6-64-128-128-302.933 230.4-691.2 46.933-25.6-12.8-38.4-42.667-25.6-68.267v-4.267l64-115.2c12.8-25.6 46.933-34.133 72.533-21.333l29.867 17.067c34.133 21.333 64 42.667 93.867 68.267 4.267 4.267 17.067 4.267 21.333 0 8.533-4.267 8.533-12.8 4.267-21.333l-4.267-4.267c-29.867-25.6-64-51.2-98.133-72.533l-29.867-12.8c-12.8-8.533-25.6-12.8-42.667-12.8-29.867 0-59.733 17.067-72.533 42.667l-64 110.933c-119.467-85.333-196.267-251.733-153.6-460.8 0-8.533 8.533-12.8 17.067-12.8h72.533c8.533 0 12.8 4.267 17.067 12.8 8.533 59.733 59.733 98.133 119.467 89.6 46.933-4.267 85.333-42.667 89.6-89.6 0-8.533 8.533-12.8 17.067-12.8h68.267c8.533 0 12.8 4.267 17.067 12.8 8.533 59.733 59.733 98.133 119.467 89.6 46.933-4.267 85.333-42.667 89.6-89.6 0-8.533 8.533-12.8 17.067-12.8h68.267c8.533 0 17.067 8.533 17.067 17.067 0 98.133 29.867 209.067 102.4 264.533 251.733 196.267 183.467 362.667 123.733 422.4zM704 482.133l-51.2 25.6c0 17.067 12.8 29.867 29.867 29.867s29.867-12.8 29.867-29.867c4.267-12.8 0-21.333-8.533-25.6z"/>
    </g>
</svg>