<svg xmlns="http://www.w3.org/2000/svg" viewBox="0 0 1024 960">
    <g transform="scale(1,-1) translate(0, -960)">
        <path d="M180.715 959.949c-13.299 0.55-28.343-3.012-35.307-19.452-6.763-15.962-12.083-50.662-14.515-97.101l52.215-25.293c-0.862 33.246 0.367 64.546 3.712 92.958-1.058-9.353-3.268-38.716-0.235-91.703 0.806-14.583 2.082-31.006 3.738-49.152 0.094-1.024 0.085-1.933 0.32-2.859 1.506-15.834 3.465-32.87 5.931-51.516 2.103-16.055 4.463-33.037 7.36-51.371 2.364-15.693 5.227-32.124 8.205-49.527l-0.41-0.384c0.563-0.465 0.653-0.858 0.614-1.109 0.401-2.342 0.823-4.454 1.225-6.801 1.348-6.929 2.551-13.952 4.002-21.026 1.481-7.714 3.068-15.552 4.617-23.654 0.768-4.053 1.545-8.132 2.423-12.326 2.53-12.442 5.278-25.169 8.090-38.285 3.486-16.141 7.279-32.695 11.358-49.941 3.84-16.32 7.97-33.323 12.297-50.607 4.19-16.503 8.435-33.382 13.111-50.846 4.096-15.471 8.516-31.369 12.996-47.659 0.132-0.785 0.512-1.617 0.64-2.398 4.518-16.043 9.212-32.606 14.106-49.472 0.040-0.403 0.166-0.77 0.361-1.091l-0.006 0.012c0.751-2.526 1.408-4.89 2.159-7.415 3.294-11.174 6.741-22.733 10.308-34.347-5.402 2.214-9.543 4.145-13.593 6.226l1.007-0.47c10.044-40.976 7.303-31.67 4.581-22.357l-12.581 50.218c-0.887 3.307-1.801 6.387-2.688 9.694l-0.115 0.115-0.205 0.085c-3.712 12.826-7.142 25.839-10.923 39.049-0.956 3.699-1.89 7.403-2.948 11.243-4.442 16.542-8.841 33.331-13.346 50.261 0.825-6.523-3.443 9.994-7.586 26.561l-4.8 22.676c-4.049 16.606-7.949 33.314-11.853 50.027-0.924 1.408-4.831 18.7-8.545 36.064l-2.732 15.247c-3.618 16.922-6.963 34.078-10.338 50.961-0.462 1.497-1.643 7.731-2.745 13.992l-0.642 4.405c-1.946 10.449-3.742 20.988-5.547 31.539-0.171 0.538-0.209 1.195-0.38 1.724l-44.651 22.784 44.8-22.699c-2.423 16.486-4.992 32.887-7.45 49.122-0.875 3.62-3.202 21.144-5.354 38.722l-1.247 12.503c-1.558 12.071-3.262 29.809-4.567 47.658l-0.225 3.828c-0.099 0.873-0.161 1.897-0.171 2.933v0.015c-1.022 13.252-1.863 30.103-2.309 47.052l-0.029 1.4-52.1 25.114c-0.102-3.157-0.354-6.409-0.495-9.813-0.514-11.369-0.874-25.242-0.991-39.174l-0.003-0.514c-0.128-15.71 0.009-32.094 0.29-49.263 0.371-15.787 1.015-32.256 1.869-49.007 0.845-14.336 1.792-28.834 2.953-43.601 0.026-0.64 0.115-1.024 0.145-1.664l0.235-0.115c0.098-1.011 0.307-2.138 0.26-3.243 1.399-15.693 2.761-31.646 4.617-47.659 1.818-16.269 3.857-32.555 6.276-49.037 2.057-13.888 4.267-27.691 6.571-41.617 0.469-2.731 1.054-5.615 1.519-8.35 3.191-17.237 6.605-33.877 10.308-49.412 4.147-17.638 8.567-34.185 13.056-49.591 3.017-10.103 5.969-19.81 8.994-29.026 2.615-7.761 5.478-15.565 8.235-23.219 6.626-18.014 13.965-35.494 21.875-52.565l0.235-0.115c0.238-0.851 0.515-1.579 0.85-2.275l-0.035 0.082c9.647-20.634 20.279-40.559 32.213-59.52 0.418-0.567 0.811-1.382 1.229-1.954-19.358 7.791-53.662 4.186-53.419 4.147 35.413-12.284 66.475-27.349 86.067-50.142-7.787-8.576-22.357-15.078-40.683-20.386 25.335-2.743 39.458 1.694 44.625 3.942-13.239-11.034-20.629-31.206-27.132-52.915 14.903 24.354 29.675 40.474 44.070 46.635 3.311-10.974 6.908-22.349 10.423-33.609-31.019-60.561-62.711-125.675-94.912-194.295 8.687 1.161 14.485 6.187 18.372 13.316 5.504 11.985 35.601 75.934 81.391 165.265 17.621-55.59 37.538-114.261 59.106-175.223 4.745 6.123 5.286 12.898 3.302 19.797-4.181 11.516-27.042 76.706-55.663 168.363 6.507 12.625 13.568 26.074 20.646 39.573 6.907-2.247 12.598-4.542 18.103-7.163l-0.904 0.388c8.316-8 14.37-21.069 19.772-35.541 1.425 16.619-3.038 33.101-14.191 46.899 56.973-10.995 108.715-3.797 140.292 34.551 2.538 3.139 5.197 6.715 7.714 10.396l0.376 0.582c-13.862-12.966-29.086-17.229-56.038-11.648 42.509 12.006 65.084 26.338 86.912 52.126 5.026 5.944 10.199 12.584 15.109 19.425l0.656 0.961c-40.196-30.797-82.176-34.97-123.708-20.971-0.563 0.286-1.161 0.358-1.924 0.674 38.997-0.858 94.012 20.292 131.942 50.816 17.468 14.059 33.946 31.095 49.937 51.657 11.972 15.275 23.424 32.452 34.987 51.84 9.963 16.781 19.955 35.179 29.79 55.223-9.404-3.285-20.019-5.18-31.484-5.931l-6.131-0.32c-2.048-0.107-4.041-0.009-6.281-0.085 37.73 8.448 64.021 31.548 85.073 61.705-10.261-4.979-26.778-11.068-45.649-12.557-2.466-0.243-5.099-0.273-7.735-0.29-0.597 0.085-1.225 0-2.018 0.115 13.065 3.354 24.431 7.565 34.577 13.171 2.189 1.097 4.203 2.415 6.221 3.738 3.127 1.975 6.097 4.164 9.054 6.366 1.852 1.553 3.669 2.918 5.521 4.471 4.324 3.766 8.223 7.767 11.775 12.065l0.138 0.172c1.229 1.442 2.449 2.705 3.477 4.173 1.536 2.21 3.038 4.215 4.352 6.251 4.862 6.807 10.16 14.966 15.125 23.345l0.909 1.657c1.247 1.993 3.166 5.362 5.020 8.772l0.762 1.532c0.597 1.331 1.357 2.436 1.954 3.767 1.749 3.597 3.443 6.805 4.672 9.668 1.835 4.19 3.14 7.637 3.917 10.163-1.317-0.832-2.833-1.564-4.432-2.117l-0.155-0.047c-11.648-4.779-30.967-8.047-46.259-8.644-0.196 0.030-0.384 0.085-0.614-0.085-0.853 0-1.869-0.064-2.833-0.085 30.635 9.152 45.491 19.311 60.659 34.987 4.070 4.267 8.192 8.917 12.352 13.781 12.681 14.558 25.391 30.754 36.915 47.104 11.234 15.787 21.47 31.497 29.44 45.734 5.193 9.173 9.472 17.673 12.817 25.289 1.904 4.248 4.366 10.607 6.617 17.065l0.653 2.152c-9.614-0.214-20.945-0.336-32.304-0.336-10.841 0-21.656 0.111-32.445 0.332l1.611-0.026c21.124-0.414 43.332-0.299 63.373 0.205 21.261 63.377 2.603 96.521 2.603 96.521s-22.396 51.733-59.729 36.331c-18.125-7.479-50.014-31.189-88.866-66.645l21.961-61.794c25.719 27.447 51.567 51.627 76.834 71.842-8.277-6.694-33.382-28.557-73.037-73.626-10.94-12.382-22.959-26.624-36.041-42.547-0.738-0.905-1.472-1.609-2.014-2.543-11.371-13.939-23.326-29.227-36.156-46.199-11.059-14.592-22.665-30.135-34.901-47.194-10.56-14.515-21.278-30.029-32.704-46.404l-0.674 0.030c0.085-0.823-0.179-1.203-0.405-1.374-1.54-2.206-2.842-4.25-4.382-6.455-4.42-6.647-9.045-13.269-13.491-20.122-4.937-7.381-9.907-14.967-15.1-22.72-2.594-3.874-5.205-7.753-7.825-11.827-7.851-12.028-15.727-24.448-23.893-37.235-3.099-4.066-13.194-20.13-23.138-36.296l-7.407-12.942c0.138 1.458-9.893-15.025-19.813-31.582l-10.501-18.909c-9.732-16.614-19.733-33.596-29.845-51.371-8.994-15.71-18.082-32.013-27.422-48.683-0.512-0.738-0.858-1.69-1.374-2.423-9.109-16.503-18.492-33.583-27.947-51.051-0.256-0.367-0.525-0.742-0.585-1.139-1.399-2.633-2.773-5.077-4.177-7.71-7.253-13.53-14.763-27.405-22.135-41.728-0.030-0.201-0.265-0.388-0.29-0.589-1.118-2.065-2.18-3.921-3.098-6.016-4.949-9.387-9.446-18.338-19.157-37.060-2.9 2.807-6.112 5.323-9.571 7.483l-0.243 0.141c5.047 9.591 9.237 17.929 14.545 27.887 1.971 3.767 4.13 7.514 6.131 11.477 0.572 1.135 1.122 2.052 1.694 3.187 7.514 13.897 15.279 28.177 23.305 42.812 1.916 3.371 3.605 6.562 5.521 9.929l0.030 0.205-0.085 0.235c7.189 13.265 14.775 26.466 22.221 40.094 2.172 3.738 4.343 7.484 6.541 11.422 9.566 16.841 19.354 33.835 29.175 51.046 19.020 33.674 28.683 49.83 38.464 65.907l-9.289-16.435c9.933 16.585 20.062 33.118 30.195 49.677 10.389 16.922 20.928 33.621 31.689 50.287 10.53 16.499 21.453 32.939 32.154 49.212 3.908 5.914 7.808 11.635 11.913 17.519 6.733 9.963 13.658 19.887 20.591 29.82 0.286 0.563 0.768 1.097 1.050 1.664l-18.487 55.748 18.692-55.778c11.149 15.189 22.11 30.421 33.028 45.44 11.861 15.898 23.654 31.39 35.396 46.494 12.228 15.642 24.58 30.647 37.060 45.235 0.742 0.909 1.476 1.835 2.189 2.543 12.224 14.221 24.346 27.823 36.595 40.828l-21.961 61.619c-2.594-2.458-5.389-4.877-8.209-7.509-11.499-10.707-22.040-20.859-32.41-31.181l0.052 0.052c-12.587-12.544-25.485-25.873-38.899-39.919-12.245-13.005-24.789-26.782-37.41-40.943-10.709-12.215-21.47-24.602-32.269-37.41-0.486-0.538-0.742-0.926-1.229-1.463l0.119-0.32c-0.725-0.892-1.481-1.92-2.398-2.773-11.341-13.743-22.908-27.657-34.138-42.027-8.802-10.959-19.924-25.445-30.804-40.12l-3.103-4.381c-3.812-4.823-12.939-17.424-21.962-30.103l-5.81-8.596c-1.796-2.573-3.605-5.342-5.402-7.915-11.127-16.41-21.594-32.529-30.955-47.983-10.679-17.489-20.258-34.321-28.885-50.287-2.045-3.185-7.318-13.183-12.463-23.257l-3.367-7.262c-4.058-8.324-7.936-16.879-11.797-25.233-8.981-19.763-16.981-39.663-24.179-59.691l0.085-0.265c-0.388-0.683-0.752-1.483-1.046-2.316l-0.033-0.107c-4.595-12.928-8.721-25.937-12.471-38.989-6.032-7.436-12.808-13.906-20.315-19.44l-0.301-0.212c-1.805 2.244-3.729 4.173-5.636 6.281 17.681 25.527 31.501 61.38 35.307 94.532 2.261 19.695 2.035 40.649-0.67 63.518-1.954 17.045-5.397 34.97-10.163 54.349-5.683 22.896-11.021 40.676-17.032 58.143l1.467-4.903c-3.883-7.906-9.374-15.684-16.124-23.279-1.22-1.335-2.458-2.662-3.678-3.998s-2.522-2.534-3.883-3.972c18.492 28.753 20.668 59.618 15.185 91.669-3.362-9.506-9.963-23.586-20.911-36.241-1.544-1.79-3.079-3.417-4.683-4.974l-0.019-0.018c-0.427-0.316-0.742-0.751-1.314-1.169 6.135 10.223 10.675 19.925 13.581 29.76 0.695 2.048 1.131 4.13 1.579 6.217 0.57 2.369 1.182 5.639 1.666 8.951l0.083 0.691c0.201 2.121 0.503 4.092 0.7 6.217 0.167 2.056 0.263 4.45 0.263 6.866 0 2.899-0.137 5.766-0.405 8.594l0.028-0.361c-0.128 1.664-0.141 3.196-0.41 4.757-0.401 2.347-0.7 4.565-1.139 6.66-1.797 10.69-3.686 19.366-5.922 27.902l0.491-2.204c-1.279 5.182-2.231 8.554-3.25 11.896l0.477-1.818c-0.448 1.207-0.631 2.381-1.079 3.593-1.139 3.345-2.065 6.4-3.072 8.96-1.345 3.595-2.642 6.504-4.086 9.325l0.233-0.502c-0.392-1.601-0.921-3.002-1.596-4.317l0.051 0.11c-4.365-10.24-14.49-24.265-23.744-34.138-0.145-0.107-0.282-0.218-0.32-0.469-0.538-0.521-1.139-1.173-1.724-1.779 13.581 24.772 16.627 40.388 16.439 59.665-0.13 6.061-0.413 11.749-0.85 17.395l0.065-1.040c-1.282 19.87-3.422 37.92-6.454 55.666l0.438-3.101c-2.735 16.913-6.101 33.139-9.933 47.049-2.423 8.998-4.996 17.015-7.62 23.889-2.943 7.375-5.406 12.846-8.040 18.217l0.71-1.603c-18.419-18.961-40.533-40.512-59.546-57.532 19.012 17.028 41.131 38.618 59.575 57.771-25.98 53.077-58.321 62.34-58.321 62.34s-11.546 4.689-24.845 5.235zM324.954 286.592c0.469-1.186 0.896-2.381 1.344-3.563-2.517-1.429-4.975-2.914-7.625-4.203-0.533-0.171-0.956-0.486-1.634-0.759 2.692 2.543 5.321 5.47 7.915 8.525zM299.106 217.613c5.564-5.845 10.782-10.752 15.245-14.106 0.747-2.445 2.189-7.049 3.008-9.664-3.409-0.491-6.933-1.549-10.453-2.543-0.469 1.579-0.87 2.825-1.344 4.412-1.097 3.593-2.069 7.3-3.273 11.038-0.341 1.067-0.589 1.971-0.934 3.038-0.734 2.534-1.506 5.261-2.249 7.825zM310.438 179.853c4.028 0.064 7.829-0.085 11.418-0.439 1.173-3.742 1.476-4.698 3.038-9.754 3.255 0.674 6.784 0.572 10.453 0.145-4.544-8.64-9.118-17.621-13.696-26.487-3.712 12.023-7.351 23.71-11.213 36.535z"/>
    </g>
</svg>